<svg width="18" height="18" viewBox="0 0 18 18" fill="none" xmlns="http://www.w3.org/2000/svg">
<path d="M2.15039 16.0002H3.40039L12.6504 6.7502L11.4254 5.5002L2.15039 14.7752V16.0002ZM15.8504 5.6502L12.4754 2.3002L13.5754 1.2002C13.9254 0.866862 14.3547 0.700195 14.8634 0.700195C15.3714 0.700195 15.7921 0.866862 16.1254 1.2002L17.1504 2.2252C17.4337 2.5252 17.5837 2.8792 17.6004 3.2872C17.6171 3.69586 17.4754 4.04186 17.1754 4.3252L15.8504 5.6502ZM14.7754 6.7502L4.02539 17.5002H0.650391V14.1252L11.4004 3.3752L14.7754 6.7502ZM12.0254 6.1252L11.4254 5.5002L12.6504 6.7502L12.0254 6.1252Z" fill="white"/>
</svg>
