<svg width="28" height="27" viewBox="0 0 28 27" fill="none" xmlns="http://www.w3.org/2000/svg">
<path d="M18.121 3.3999L16.708 1.5679C16.4265 1.20571 16.0663 0.912319 15.6547 0.709956C15.243 0.507594 14.7907 0.401565 14.332 0.399902H10.468C10.0093 0.401565 9.55698 0.507594 9.14533 0.709956C8.73367 0.912319 8.37346 1.20571 8.09199 1.5679L6.67899 3.3999H18.121Z" fill="#24252E"/>
<path d="M12.4 18.3999C14.6091 18.3999 16.4 16.609 16.4 14.3999C16.4 12.1908 14.6091 10.3999 12.4 10.3999C10.1909 10.3999 8.39999 12.1908 8.39999 14.3999C8.39999 16.609 10.1909 18.3999 12.4 18.3999Z" fill="#24252E"/>
<path d="M19.4 5.3999H5.39999C4.0744 5.40149 2.80355 5.92878 1.86621 6.86612C0.928876 7.80346 0.401582 9.07431 0.399994 10.3999V19.3999C0.401582 20.7255 0.928876 21.9963 1.86621 22.9337C2.80355 23.871 4.0744 24.3983 5.39999 24.3999H19.4C20.7256 24.3983 21.9964 23.871 22.9338 22.9337C23.8711 21.9963 24.3984 20.7255 24.4 19.3999V10.3999C24.3984 9.07431 23.8711 7.80346 22.9338 6.86612C21.9964 5.92878 20.7256 5.40149 19.4 5.3999ZM12.4 20.3999C11.2133 20.3999 10.0533 20.048 9.06657 19.3887C8.07988 18.7294 7.31084 17.7924 6.85672 16.696C6.40259 15.5996 6.28377 14.3932 6.51528 13.2294C6.74679 12.0655 7.31824 10.9964 8.15735 10.1573C8.99647 9.31815 10.0656 8.7467 11.2295 8.51519C12.3933 8.28368 13.5997 8.4025 14.6961 8.85663C15.7925 9.31075 16.7295 10.0798 17.3888 11.0665C18.0481 12.0532 18.4 13.2132 18.4 14.3999C18.3984 15.9907 17.7658 17.5159 16.6409 18.6408C15.516 19.7657 13.9908 20.3983 12.4 20.3999Z" fill="#24252E"/>
<path d="M26.8 22.7505C27.0761 22.7505 27.3 22.5266 27.3 22.2505V20.5494C27.3 20.2733 27.0761 20.0494 26.8 20.0494H23.9609V17.2C23.9609 16.9238 23.737 16.7 23.4609 16.7H21.7391C21.463 16.7 21.2391 16.9238 21.2391 17.2V20.0494H18.4C18.1239 20.0494 17.9 20.2733 17.9 20.5494V22.2505C17.9 22.5266 18.1239 22.7505 18.4 22.7505H21.2391V25.6C21.2391 25.8761 21.463 26.1 21.7391 26.1H23.4609C23.737 26.1 23.9609 25.8761 23.9609 25.6V22.7505H26.8Z" fill="#24252E" stroke="#F0F0F5" stroke-linejoin="round"/>
</svg>